<?xml version="1.0" encoding="utf-8"?>
<!-- Generator: Adobe Illustrator 26.0.1, SVG Export Plug-In . SVG Version: 6.00 Build 0)  -->
<svg version="1.1" id="Layer_1" xmlns="http://www.w3.org/2000/svg" xmlns:xlink="http://www.w3.org/1999/xlink" x="0px" y="0px"
	 viewBox="0 0 1721 465.2" style="enable-background:new 0 0 1721 465.2;" xml:space="preserve">
<style type="text/css">
	.st0{fill:#FFFFFF;}
</style>
<g>
	<path class="st0" d="M168.1,465c-20.7,0-41.5,0-62.2,0H168.1c49.2,0,98.3,0,147.5,0C266.4,465,217.3,465,168.1,465z M1500.4,184.9
		c-3.8,0-7.5,0-11.3,0C1492.9,184.8,1496.7,184.9,1500.4,184.9h3.8C1502.9,184.9,1501.7,184.9,1500.4,184.9z"/>
	<path class="st0" d="M144.1,375.4c-1.4,2.1-1.9,6.2-0.8,8.2c1.1,2.1,4.7,3.8,7.2,3.9c12.2,0.4,24.3,0.2,36.5,0.2
		c30.5-0.1,61-0.1,91.5-0.3c5.7,0,9.3,3.2,12.4,7.2c10.6,13.4,21.2,26.9,31.8,40.3c3.7,4.7,8.1,9,11,14.1c1.7,3.1,2.1,7.7,1.2,11.2
		c-0.6,2.1-4.6,3.9-7.4,4.5c-3.8,0.8-8,0.3-12,0.3c-49.2,0-98.3,0-147.5,0h-62.2c-15.6,0-31.1,0-46.6,0s-31.1,0-46.7,0
		c-4.7,0-9.2-0.4-11.6-5.1c-2.4-4.8-0.3-8.8,2.6-12.9c8.9-12.8,17.5-25.9,26.3-38.8c13.1-19.4,26.4-38.7,39.5-58.1
		c11.9-17.6,23.6-35.3,35.5-53c9.9-14.6,19.8-29.1,29.7-43.7c10.9-16.1,21.8-32.2,32.7-48.3c14.2-20.9,28.4-41.7,42.5-62.6
		c16.9-25.1,33.6-50.2,50.4-75.3c11.1-16.5,22.1-33.1,33.3-49.6c11.6-16.9,33-21,49.1-12.6c5.5,2.9,10.1,8.1,14.5,12.8
		c4.4,4.6,7.9,9.9,12,14.7c2.7,3.1,2.9,6,0.5,9.4c-18,26.3-36.1,52.7-54,79.1c-14.2,21-28.3,42.2-42.5,63.2
		c-12.8,19-25.6,38-38.4,57c-17.3,25.6-34.8,51-52.1,76.6C169.7,337,156.7,356.1,144.1,375.4z"/>
	<path class="st0" d="M725,463.2c-0.5,1-2.7,1.8-4.1,1.8c-12.5,0.1-25,0.1-37.5,0.1V465c-9.8,0-19.7-0.2-29.5,0
		c-16.4,0.5-29.2-5.8-39.1-18.8c-6.8-9-14.2-17.6-21.4-26.3c-7.9-9.5-15.8-18.8-23.7-28.2c-11.9-14.3-23.8-28.5-35.7-42.9
		c-13.2-16-26.3-32-39.6-48c-14.5-17.4-29.3-34.7-43.8-52.2c-16-19.3-31.9-38.7-47.9-58c-12.3-14.9-24-30.2-36.9-44.4
		c-7.2-7.9-11.3-16.5-13-26.7c-0.2-1.5-0.6-3.1-0.3-4.5c3.6-16.4,7.6-27,27.9-34.1c12.9-4.5,29,0.8,38.6,12.2
		c15.1,17.9,30.3,35.7,45.4,53.7c12.2,14.5,24.3,29,36.3,43.5c14.8,17.9,29.6,35.8,44.4,53.8c16.8,20.4,33.5,40.8,50.4,61.1
		c10.5,12.7,21.2,25.1,31.8,37.8c13.1,15.8,26.1,31.8,39.2,47.6c10.7,12.9,21.5,25.7,32.3,38.6c8.3,9.9,16.7,19.9,24.9,29.9
		C724.5,460.1,725.5,462.2,725,463.2z"/>
	<path class="st0" d="M598.7,463.6c-1.8,0.5-3.7,1.4-5.6,1.4c-11.8,0.1-23.7,0.1-35.5,0.1V465c-9.3,0-18.7-0.3-28,0.1
		c-17.6,0.8-30.8-6.3-41.5-20.2c-15.6-20.3-32.3-39.8-48.5-59.6c-14.3-17.5-28.4-35.1-42.8-52.5c-9.7-11.8-19.8-23.2-29.5-34.9
		c-12.1-14.8-23.9-29.8-35.9-44.6c-9.1-11.2-18.7-22.1-27.2-33.7c-6.7-9.2-8.5-19.5-5.2-31.1c3.8-13.2,12.4-21,24.6-25.2
		c14.4-4.9,27.4-1.1,37.2,9.9c14.3,16,27.5,32.8,41.2,49.3c11.4,13.7,22.8,27.3,34.1,41.1c10.8,13.1,21.4,26.2,32.1,39.4
		c15.4,18.9,30.9,37.8,46.4,56.6c14.4,17.4,28.9,34.6,43.3,52c12.8,15.5,25.6,31,38.2,46.6C597.5,459.6,597.9,461.8,598.7,463.6z"/>
	<path class="st0" d="M978.6,461c-13.2-0.1-26.3,0-39.5,0c-3.2,0-4.3-1.5-4.5-4.6c-0.8-13.1-1.8-26.2-2.7-39.3
		c-0.8-10.8-1.5-21.6-2.3-32.3c-0.1-1.4-0.6-2.7-2.2-4.4c-0.8,1.2-1.8,2.4-2.2,3.7c-4.7,13-9.3,25.9-13.9,38.9
		c-3.8,11-7.5,21.9-11,33c-1.2,3.8-3.1,5.3-7.1,5.3c-12.7-0.2-25.3-0.2-38-0.1c-3.7,0-5.5-1-6.7-4.9c-2.8-9.5-6.5-18.8-9.7-28.2
		c-3.8-11.1-7.4-22.3-11.1-33.5c-1.2-3.5-2-7.2-3.2-10.7c-0.5-1.3-1.5-2.3-3.5-3.3c-0.2,1.5-0.6,3-0.7,4.5
		c-1.5,23.9-3,47.8-4.4,71.8c-0.2,3.1-1.2,4.1-4.2,4.1c-12.2,0-24.3,0.1-36.5,0.2c-3.3,0-4.9-1.1-4.5-4.8c1.7-15.4,3-30.7,4.7-46.1
		c2.1-19,4.4-38,6.5-57c1.8-16.7,3.5-33.4,5.2-50.1c0.3-2.9,1.4-4.1,4.3-4.1c13.3,0,26.7-0.1,40,0.2c1.8,0.1,4.5,2.2,5.3,4
		c7.9,20.4,15.6,40.9,23.3,61.4c5.1,13.7,10,27.5,14.9,41.2c0.4,1,1,1.9,2.4,4.5c1.9-4.8,3.3-8.3,4.6-11.8
		c7.9-22,15.8-43.9,23.6-65.9c3.5-10,6.7-20.1,10.4-30c0.6-1.5,2.9-3.4,4.5-3.5c13.8-0.3,27.7-0.1,41.5-0.2c2.9,0,3.6,1.5,3.9,4
		c1.5,14.5,3.2,29.1,4.7,43.6c2.5,23.8,5,47.6,7.5,71.4c1.4,12.7,2.8,25.4,4.6,38.1C983.2,460,982.1,461,978.6,461z"/>
	<path class="st0" d="M472.7,463c-0.9,1.2-3,2-4.6,2c-14.8,0.2-29.6,0.1-44.5,0.1c-14.5,0-29,0.1-43.5-0.1c-2.2,0-5-1.3-6.3-3
		c-13.9-17-27.6-34.1-41.3-51.3c-16-20-31.8-40.1-47.8-60.1c-12-15-24.1-30-36.2-45c-10.7-13.3-10.4-34.3,0.9-46.9
		c14.4-16,33.4-17.3,50.8-6.2c4.6,3,7.9,7.9,11.5,12.3c16,19.6,31.7,39.3,47.8,58.8c14.2,17.3,28.8,34.3,43.1,51.6
		c10.7,12.9,21.1,26,31.8,39c11.6,14.1,23.4,28.1,35.1,42.1c0.6,0.8,1.5,1.5,1.9,2.3C472,460.1,473.2,462.2,472.7,463z"/>
	<path class="st0" d="M1080.1,84.7c-3.7-18-15-29.8-33-31.8c-7.5-0.9-15.2,0.5-22.1,4.5c-5.1,2.9-10.2,5.8-15.9,9
		c-0.2-1.5-0.6-2.7-0.5-3.9c0.8-5.2,1.7-10.5,2.7-15.7c2.6-13.6,5.2-27.3,7.8-40.9c1.1-6,0.3-6.6-5.8-4.9c-1,0.3-2,0.3-2.9,0.5
		c-13,2.4-26.1,4.6-39,7.2c-1.5,0.3-3.6,2.2-3.9,3.6c-2.3,11.2-4.4,22.5-6.3,33.8c-3.5,20.1-6.8,40.2-10.2,60.3
		c-1,5.7-2,11.4-3,17.1c-2.8,15.5-5.6,31-8.5,46.5c-0.7,3.9-1.8,7.7-2.3,11.7c-0.6,5,1.1,6.5,6.1,5.3c3.7-0.8,7.2-2.4,10.9-3.2
		c9.3-2,18.6-4.3,28.1-0.3c17.5,7.2,34.8,5,51.7-2.1c14-5.9,25-15.9,33.1-28.4C1080.6,132,1085.1,109.3,1080.1,84.7z M1018,143.1
		c-5.3,5.2-12.2,7.2-19.8,4.9c-2.6-0.8-3.4-2-2.8-5.1c1.6-8.5,2-17.1,3.6-25.6c1.8-9.8,2.6-20.1,14.8-24c8.1-2.6,15.2,0.9,15.8,9.4
		c0.2,3.1,0,6.3,0,9.5C1031.4,124.5,1026.6,134.8,1018,143.1z"/>
	<path class="st0" d="M1240-0.2c-14.3,2.9-28.5,5.9-42.9,8.5c-3.7,0.7-5,2.3-5.5,5.7c-1.7,11.8-3.6,23.6-5.3,35.4
		c-0.5,3.5-2.3,5.4-6.1,4.9c-1.8-0.2-3.7-0.3-5.5-0.6c-19.6-3.5-36.3,2.7-51.4,14.8c-13.1,10.6-22.6,23.7-28,39.8
		c-5.9,17.4-7.3,35.1-1.2,52.7c4.7,13.5,14.6,23,28.4,26c13.6,2.9,26.7-0.5,37.8-9.7c1-0.8,2.6-1.4,3.9-1.4c0.5,0,1.2,2.1,1.3,3.3
		c0.3,4.1,2.3,5.9,6.4,5.8c5.8-0.1,11.7,0,17.5,0v0.1c6,0,12-0.1,18,0c3.7,0.1,5.3-1.5,5.9-5.1c1.5-9.3,3.3-18.6,4.9-27.9
		c2.1-11.9,4.2-23.8,6.3-35.8c1-6,1.8-12.1,2.9-18.2c2.1-11.3,4.4-22.6,6.5-33.9c2.3-12.4,4.4-24.9,6.5-37.3
		c1.3-7.5,2.6-15.1,3.7-22.6C1244.6,1.2,1243.6-0.9,1240-0.2z M1177.4,94.9c-1,8.5-2.5,17-3.9,25.5c-0.5,2.9-1,5.9-1.4,8.8
		c-0.8,7.1-9.3,16.3-16.3,17.5c-6.9,1.2-12.3-3.3-13.9-11.8c-0.4-2.4-0.4-5-0.5-7.5c-0.2-11.9,4-22.2,11.9-30.8
		c5.6-6,13.2-8.2,21.3-6.6C1175.9,90.4,1177.6,93.4,1177.4,94.9z"/>
	<path class="st0" d="M916.1,184.8c-12.8,0.1-25.7,0.1-38.5,0.2c-3.9,0-6.2-1.7-6.9-5.7c-2.2-12.9-4.6-25.8-6.6-38.8
		c-2.1-13.5-3.8-27-5.8-40.5c-0.7-4.9-1.4-9.9-2.3-14.8c-0.2-1-1.7-2.5-2.4-2.4c-1.4,0.1-3.5,0.9-4.1,2c-4.2,7.9-8.2,15.9-12.1,24
		c-2.5,5.2-1,7.3,4.8,7.4c8.6,0.1,8.7,0.1,10.1,8.7c1.3,7.7,2.5,15.4,3.6,23.1c0.8,5.6-1.2,7.6-6.9,7.6c-12.8,0-25.6,0-38.5,0v-0.4
		c-12.2,0-24.3,0-36.5,0c-7.3,0-9.1-2.8-5.7-9.2c5.5-10.4,11.3-20.7,16.9-31c9.5-17.3,18.9-34.6,28.4-52
		c6.5-11.8,13.7-23.2,19.2-35.5c3.5-7.8,9.1-9.9,16.2-10.9c11.5-1.7,23.1-3.1,34.6-4.4c6.3-0.8,7.2,0.5,8.2,6.7
		c1.9,11.3,4.4,22.5,6.6,33.7c1.7,8.6,3.2,17.3,4.9,25.9c2.3,11.9,4.8,23.8,7,35.7c1.8,9.8,3.3,19.6,5.2,29.4
		c2.1,10.9,4.2,21.8,6.8,32.6C923.7,181.7,922.1,184.7,916.1,184.8z"/>
	<path class="st0" d="M1693.6,151.9c-6.3-0.4-9.6-3.6-10-10c-0.1-2-0.1-4,0.2-6c1.7-9.8,3.5-19.6,5.3-29.4c2.8-15,5.8-30,8.5-45
		c0.5-2.7,0.3-5.5,0.5-9.2c-10.4,2.3-19.5,4.7-28.8,6.2c-4.5,0.7-9.3,0.3-13.8-0.5c-4.8-0.8-9.4-3.1-14.2-4.1
		c-19.6-4-36.6,2.1-52.1,13.7c-16.2,12.1-26.2,28.8-31.2,47.9c-5.2,19.6-4.6,39.3,7.5,57c5.5,8,13.6,12.9,22.8,14.6
		c17.3,3.1,31.8-4,44.7-15c2.5-2.2,3.9-2.4,5.9,0.5c6.7,9.9,15.8,14.8,28.1,15c9,0.2,16.9-2.7,24.9-5.8c1.5-0.6,3-2.7,3.4-4.4
		c1.4-6.1,2.3-12.3,3.5-18.5C1699.8,153.6,1698.8,152.2,1693.6,151.9z M1641.4,97.6c-1.9,11.4-3.9,22.9-5.5,34.4
		c-1.4,10.3-14.9,18.3-23,12.8c-2.8-1.9-4.2-6.3-5.5-9.9c-0.9-2.6-0.5-5.6-0.8-8.4c-0.6-10.5,3.7-19.1,10.2-26.9
		c4.9-5.8,11.5-8.3,18.8-8.9C1640.5,90.5,1642.2,92.9,1641.4,97.6z"/>
	<path class="st0" d="M1380.7,151.7c-6.8,0-11.3-5-10.3-11.8c1.3-9,3-18,4.6-26.9c2.1-12.1,4.4-24.1,6.6-36.2
		c1.1-5.9,1.9-11.8,3.4-17.5c1.2-4.5,0.6-6-4.1-5.3c-7.7,1.1-15.3,3.2-23,4.1c-5.2,0.6-11.2,1.6-15.5-0.3c-8.4-3.8-17-4.9-25.7-4.9
		c-21.8-0.1-38.9,11-52.7,26.4c-9.5,10.5-16.3,23.5-19,37.8c-3.5,18.4-4.4,36.6,6.1,53.5c5.8,9.4,14.8,14.7,24.9,16.6
		c16.6,3,31-3.5,43.3-14.4c2.8-2.5,4.4-2.6,6.7,0.5c7.1,9.6,16.4,15.4,29.8,14.2c7.7,1.8,15-2.3,22.6-5.2c1.5-0.6,3.1-2.7,3.5-4.4
		c1.7-6.9,3.1-13.9,4.3-20.9C1386.9,152.6,1384.3,151.7,1380.7,151.7z M1328.6,97.4c-2.1,12.6-4.3,25.1-6.6,37.7
		c-1,5.5-10.7,12.1-16.9,11.9c-5.6-0.2-10-5.2-11.2-12.8c-0.3-2.3-0.3-4.6-0.3-6.1c0.2-11.4,3.9-20.5,10.4-28.7
		c4.8-6,11.6-7.6,18.5-8.6C1327.1,90.1,1329.4,92.8,1328.6,97.4z"/>
	<path class="st0" d="M1124.3,363.8c-5-7.2-11.4-14.2-18.8-18.8c-7.5-4.7-16.3-7.3-25.6-8.6c-13.4-1.9-26.2-0.8-38.6,3.6
		c-13.7,4.9-24.5,13.5-31.6,26.9c-9.1,17.2-10.3,35.2-5.4,53.1c5.8,20.9,19.8,34.9,41.1,40.9c14.2,4,28.3,4.3,42.8,0.5
		c11.6-3.1,21.4-8.3,29.6-16.9c12.1-12.7,15.6-28.4,16.5-45.5C1134.1,386.6,1131.5,374.2,1124.3,363.8z M1082.7,415.3
		c-2.6,8.3-7.8,12.1-14.9,12c-7.3-0.1-12.4-3.9-14.9-12.1c-3.4-11.2-4-22.6,0.9-33.6c3.8-8.5,13.1-12.3,21.3-8.2
		c5.8,2.9,7.9,9.1,9.2,15.2c0.7,3.4,0.5,6.9,0.7,10.4c0.2,0,0.4,0.1,0.7,0.1C1084.7,404.6,1084.3,410.1,1082.7,415.3z"/>
	<path class="st0" d="M1482.6,430c-7.2,0.1-11.1-3.9-11.3-11c-0.2-5.8,0-11.7,0-20.1c1.2-11.1,0.1-24.7-4.2-37.8
		c-4.1-12.7-13.3-20.7-26.2-23.5c-16.1-3.4-32.5-2.1-48.7,0.1c-6.9,1-13.5,3.5-20.2,5.4c-2.7,0.8-4.8,2.3-4.1,5.8
		c1.5,8.2,2.8,16.4,4.2,24.6c0.4,2.8,1.8,4.3,4.7,3.7c5.4-1,10.7-2.2,16.1-3.2c7.5-1.4,14.9-1.7,22.1,1.2c4.6,1.9,9,8.1,7.9,12.2
		c-1.2,5-6,3.4-9.2,3.7c-12.5,1.1-24.8,1.7-36.7,7.4c-18.9,9-22.4,26.4-18,42.1c5.2,18.7,25.3,25.6,40.5,23.9
		c10.8-1.2,21.6-3.3,31-9.8c1.2-0.9,4.6-0.5,5.7,0.6c12.5,12.3,37,9.8,48.5,4.1c2.9-1.5,4.1-3.5,3.9-6.8c-0.2-5.5-0.3-11,0-16.5
		C1488.9,431.6,1487.1,429.9,1482.6,430z M1415.6,435c-3.3,0.1-7-0.9-9.8-2.5c-3.6-2-4.9-6.1-3.4-10c1.4-3.9,3.5-7.7,8.9-7.2
		c0.8,0.1,1.7,0,2.5,0c12.3-0.9,10.5,1.1,10.7,9.9C1424.8,434.5,1424.8,434.7,1415.6,435z"/>
	<path class="st0" d="M1721,437.2c0-5.9-1.1-7.2-6.9-7.1c-3.8,0.1-6.1-1.8-8.3-4.5c-3.8-4.5-2.8-9.7-2.9-14.8
		c-0.6-15.8,1.4-31.7-2.5-47.2c-2-7.9-6-14.5-12.5-19.2c-14-9.9-30.1-9.8-46-8.4c-11.3,1-22.5,3.8-33.7,6c-7.9,1.5-8.8,3.3-7,10.9
		c1.5,6.6,2.7,13.3,3.7,20c0.6,4,2.1,4.6,6,3.8c9.3-1.7,18.7-3.2,28.1-3.6c8.7-0.3,15.5,5.5,16.6,12.3c0.6,3.3-0.8,4.7-3.8,5
		c-4.6,0.4-9.2,1-13.8,1.2c-9.9,0.4-19.2,2.6-28.3,6.7c-20,9-22.8,28-17.8,43.5c5.8,18,25.2,24.1,41.3,22.6c8.3-0.8,16.4-4,24.3-6.9
		c5.6-2.1,9.5-4,15.6,0.8c10.4,8,23.2,7.4,35.5,3.9c12.6-3.6,12.5-3.8,12.6-17.6C1721,442.2,1721.1,439.7,1721,437.2z M1644.8,435
		c-9,0.4-12.9-9.6-8.1-15.8c2.2-2.8,6.7-3.6,10.2-5.3c0.2,0.4,0.4,0.8,0.6,1.3c7.7-0.2,7.9-0.2,9,7.2
		C1658.7,435.9,1657.8,434.5,1644.8,435z"/>
	<path class="st0" d="M1590.5,296.7c-1.4,7.5-2.7,15-3.8,22.6c-0.6,3.8-2.1,5.1-6.1,4.3c-3.7-0.8-7.6-0.8-11.4-0.8
		c-6.6,0-11.4,4.9-12,11.6c-0.3,3.6,0.8,5.4,4.6,5.1c5.3-0.3,10.7-0.3,16-0.7c4.1-0.3,5.9,1.1,5.8,5.3c-0.1,7.5-0.1,15-0.1,22.5
		c0,4-1.8,5.8-5.8,5.6c-5.3-0.2-10.7-0.1-16-0.2c-3.5-0.1-4.9,1.3-4.9,5.1c0.2,13.2,0.1,26.3,0.1,39.5l0,0c0,12.8-0.2,25.7,0.1,38.5
		c0.1,4.7-1.7,6.1-6.2,6c-12-0.2-24-0.3-36,0c-4.6,0.1-5.7-1.8-5.7-5.9c0.1-22.1,0.1-44.3,0.1-66.4c0-4.3,0.3-8.6,0-13
		c-0.1-1.3-1.5-2.6-2.6-3.6c-0.5-0.5-1.6-0.3-2.4-0.3c-10.9-0.6-10.9-0.6-10.9-11.4c0-4.5,0.1-9,0-13.5c-0.1-3.5,1.3-5.1,4.9-5.3
		c10.9-0.7,11.1-0.8,11.4-11.9c0.3-12.3,4.8-22.7,13.1-31.4c8-8.4,18.5-12.2,29.8-13.3c11.6-1.2,22.9,0.9,33.8,4.8
		C1589.8,291,1591.2,293,1590.5,296.7z"/>
	<path class="st0" d="M1343.4,458.8c-12.6,4.3-25.4,6.6-38.7,4.6c-18.7-2.9-27.3-10.8-32.5-29.5c-1.5-5.5-2-11.4-2.4-17.2
		c-0.4-5.6-0.1-11.3-0.1-17c0-7.5-0.1-15,0.1-22.5c0.1-3.9-1.3-5.6-5.2-5.2c-1.5,0.2-3,0.1-4.5,0.1c-3.5,0.1-5.3-1.5-5.3-5.1
		c0-7,0-14-0.2-21c-0.1-3.2,1.2-4.7,4.4-4.6c2.2,0,4.3-0.4,6.5-0.1c4.6,0.5,6.2-1.8,6.6-6c0.7-6.6,1.3-13.2,2.8-19.7
		c0.5-2.1,3.3-4.7,5.5-5.2c10.8-2.6,21.7-4.6,32.5-6.8c4-0.8,4.6,1.7,4.6,4.6c0.1,8,0,16,0,24c0,6.4,0.8,7.3,7.2,7
		c5.7-0.3,11.3-0.6,16.9-1.2c4.1-0.5,6.1,1,6.1,5.1c0,7.8,0,15.7-0.1,23.5c0,4.3-2.1,5.8-6.3,5.6c-6-0.3-12-0.2-18-0.3
		c-3.8-0.1-6,1.3-5.9,5.5c0.1,11.8-0.1,23.7,0.2,35.5c0.2,8.2,4.6,12.3,12.8,12.7c3.1,0.2,6.3,0,9.5-0.2c3.3-0.3,5.2,1.1,5.6,4.3
		c0.9,7.6,1.5,15.2,2.4,22.8C1348.5,456.1,1346.9,457.6,1343.4,458.8z"/>
	<path class="st0" d="M1241.2,444.3c-6.6,9.1-15.9,14.5-26.9,16.6c-7.2,1.4-14.3,3.1-21.6,3.3c-13.2,0.5-26-2.5-38.5-6.5
		c-5.5-1.7-6.6-3.9-5.4-9.2c1.4-6.5,3-12.9,4.3-19.3c0.7-3.2,2-4,5.2-3.1c7.5,2.1,15,4.3,22.7,5.5c3.9,0.6,8.2-0.4,12.2-1.5
		c3.7-0.9,4.5-4.4,1.9-7.3c-1.7-1.9-4-3.5-6.2-4.8c-8.5-4.7-17.6-8.6-25.7-13.8c-19.1-12.4-17.3-41.9-1.6-55.1
		c8.6-7.2,18.3-11,29.3-12.1c5.3-0.5,10.5-1.5,17.1-2.4c9.6,1.7,20.3,3.6,31,5.7c2.8,0.5,4,2,3.2,5.5c-1.6,6.2-2.5,12.6-3.4,19
		c-1,6.5-2.9,7-9.1,5.7c-7.5-1.6-15.4-1.9-23.1-1.9c-1.8,0-5,3-5.1,4.8c-0.1,2.1,1.9,5.3,3.8,6.4c9.7,5.7,20.3,9.9,29.4,16.4
		C1252,408.6,1252.3,429.1,1241.2,444.3z"/>
	<path class="st0" d="M1557.4,5.3c-1.9,11.8-4.2,23.5-6.3,35.3c-1.8,9.7-3.6,19.4-5.3,29.2c-2.2,12.2-4.4,24.5-6.5,36.7
		c-1.9,11.5-3.6,23-5.6,34.4c-1.9,11.1-4,22.2-6.2,33.2c-0.7,3.6-1.4,8.2-3.9,10c-2.4,1.8-7,0.7-10.6,0.8c-2.9,0.1-5.8,0-8.7,0h-3.8
		c-3.8,0-7.5,0-11.3,0c-2.7,0-5.5,0-8.2,0.1c-3.7,0.1-5.3-1.4-4.7-5.1c1.3-7.5,2.7-15,4-22.5c1-5.5,2.1-11,3-16.6
		c1.2-7.9,1.8-15.8,3.2-23.7c1.6-9.1,3.8-18.1,5.5-27.2c2.2-12.1,4.1-24.2,6.2-36.3c2-11.3,4.2-22.5,6.3-33.7c0.1-0.6,0.3-1.3,0.4-2
		c1.6-9.4,1.6-9.3,10.9-11c12.1-2.2,24.2-4.4,36.2-6.7C1557-0.7,1558.2,0.1,1557.4,5.3z"/>
	<path class="st0" d="M1478.9,4.8c-1.8,10.1-3.8,20.2-5.5,30.3c-2.2,12.6-4.2,25.2-6.3,37.8c-1.7,9.5-3.5,19-5.2,28.4
		c-1.4,7.8-2.8,15.7-4.2,23.5c-3.1,17-6.2,34-9.2,50.9c-0.2,1.1-0.4,2.3-0.3,3.5c0.2,4.2-2.1,5.6-5.9,5.6c-6.7,0-13.3,0-20,0v0.1
		c-6.7,0-13.3-0.1-20,0c-3.7,0-5.4-1.5-4.7-5.2c2.3-12.9,4.8-25.8,7.2-38.6c1-5.2,1.8-10.4,2.6-15.6c1.9-12.3,3.4-24.6,5.6-36.9
		c1.6-9.3,3.9-18.5,5.7-27.7c0.9-4.6,1.4-9.2,2.2-13.8c1.9-11.4,3.8-22.9,6-34.2c0.3-1.7,2.5-4,4.2-4.3c11.2-2.5,22.4-4.5,33.6-6.7
		c3.1-0.6,6.2-1.3,9.3-1.9C1477.9-0.9,1479.6,0.8,1478.9,4.8z"/>
</g>
</svg>
